<?xml version="1.0" encoding="utf-8" ?>
<svg xmlns="http://www.w3.org/2000/svg" xmlns:xlink="http://www.w3.org/1999/xlink" width="1024" height="1024">
	<path fill="#FEFEFE" d="M0 0L1024 0L1024 1024L0 1024L0 0Z"/>
	<path fill="#010101" d="M532.884 426.118C533.596 426.261 534.168 426.468 534.842 426.729C536.604 429.927 535.676 437.259 534.894 440.796L533.96 440.283C531.826 437.072 532.625 429.927 532.884 426.118Z"/>
	<path fill="#010101" d="M548.585 417.61C549.259 417.709 549.73 417.895 550.356 418.15C552.4 422.515 551.058 436.45 550.901 441.736L549.387 441.231C547.237 437.692 548.491 422.518 548.585 417.61Z"/>
	<path fill="#5C6FB5" d="M101.567 426.07C104.618 425.808 107.65 426.197 110.398 427.607Q110.962 427.894 111.494 428.236Q112.026 428.579 112.52 428.974Q113.014 429.37 113.465 429.813Q113.916 430.257 114.319 430.745Q114.723 431.232 115.074 431.758Q115.425 432.284 115.721 432.844Q116.017 433.403 116.254 433.99Q116.491 434.576 116.667 435.184C117.875 439.215 117.413 444.013 115.295 447.668C112.904 451.793 109.702 453.387 105.231 454.52C102.055 454.593 99.2269 454.214 96.4298 452.604Q95.8087 452.251 95.2259 451.838Q94.6432 451.425 94.1046 450.956Q93.5661 450.487 93.0771 449.966Q92.5881 449.445 92.1536 448.879Q91.7191 448.312 91.3434 447.704Q90.9677 447.097 90.6545 446.455Q90.3414 445.813 90.094 445.142Q89.8466 444.472 89.6674 443.781C88.7262 440.118 89.1945 436.085 91.144 432.821C93.5772 428.747 97.1373 427.133 101.567 426.07Z"/>
	<path fill="#010101" d="M716.615 147.201C718.797 146.997 721.012 146.963 723.204 146.899C771.813 145.477 818.026 167.264 852.839 200.241C904.058 248.759 929.204 322.322 931.026 391.702C932.485 447.28 921.471 503.75 905.318 556.742C903.891 561.425 901.459 573.545 898.415 576.757L897.681 576.635C896.889 574.452 908.054 539.458 909.388 534.942C917.878 506.2 922.735 475.99 926.38 446.277C932.428 387.687 927.608 329.543 902.606 275.485C878.647 223.683 838.869 179.498 784.325 159.577C711.303 132.906 662.136 162.03 597.558 192.132C597.59 191.044 597.927 190.802 598.634 189.992C601.298 186.939 613.685 182.035 618.053 179.981C649.632 165.134 681.316 150.118 716.615 147.201Z"/>
	<path fill="#010101" d="M163.648 571.372C154.541 570.956 146.796 570.151 139.965 563.194C135.289 558.432 133.013 552.148 133.118 545.51C133.217 539.217 135.005 534.442 138.896 529.529C143.571 523.628 149.209 518.217 154.317 512.663L182.412 481.923L278.192 377.741L413.819 229.418L456.069 182.784C463.596 174.45 470.885 165.617 478.935 157.799C489.181 147.849 501.402 141.843 515.878 142.176C525.532 142.398 534.959 145.301 542.757 151.016C553.062 158.569 560.848 169.196 569.163 178.778C574.662 185.115 580.417 191.247 585.97 197.543L654.917 275.28C662.925 284.183 670.651 293.31 678.875 302.023C696.075 321.255 712.737 340.981 730.035 360.119C737.925 369.554 746.423 378.439 754.504 387.706Q795.817 435.259 838.004 482.038L862.201 509.325C868.843 516.687 876.241 524.077 881.836 532.247C884.909 536.735 886.431 540.799 886.618 546.279C886.846 552.971 884.739 558.864 880.084 563.727C873.135 570.986 865.017 571.438 855.701 571.475L855.469 599.15C855.462 603.732 855.912 608.698 855.404 613.229C855.249 614.609 855.125 615.704 854.2 616.742C852.328 614.008 853.446 576.151 853.471 569.312C861.383 569.089 869.677 569.712 876.154 564.276C880.955 560.246 883.848 554.109 884.173 547.88C884.502 541.578 882.245 536.491 878.587 531.537C874.848 526.472 870.302 521.835 866.107 517.145Q856.057 505.953 846.173 494.614L765.33 403.656L555.977 166.691C545.299 154.687 534.168 145.219 517.4 144.358C504.357 143.687 492.397 148.241 482.808 157.066C476.918 162.486 471.658 168.831 466.288 174.766L440.264 203.483L353.789 298.739L211.356 453.776L164.513 504.856C156.522 513.541 147.76 522.012 140.347 531.178C137.095 535.2 135.445 540.11 135.324 545.263Q135.308 545.853 135.322 546.444Q135.337 547.034 135.381 547.623Q135.425 548.212 135.5 548.797Q135.574 549.383 135.678 549.965Q135.782 550.546 135.916 551.121Q136.049 551.696 136.212 552.264Q136.374 552.832 136.566 553.39Q136.757 553.949 136.977 554.497Q137.196 555.045 137.444 555.582Q137.691 556.118 137.965 556.641Q138.24 557.164 138.54 557.672Q138.841 558.18 139.167 558.673Q139.493 559.165 139.844 559.64Q140.194 560.115 140.569 560.572Q140.943 561.028 141.341 561.465Q141.738 561.902 142.157 562.318C149.094 569.248 156.924 568.758 165.937 568.849Q166.201 589.816 166.047 610.784C166.029 612.747 166.434 617.404 164.984 618.829C164.213 617.788 163.959 616.769 163.82 615.5C163.368 611.367 163.859 606.754 163.857 602.563Q163.955 586.966 163.648 571.372Z"/>
	<path fill="#F7C11B" d="M869.055 357.679C877.246 356.912 885.932 359.722 892.558 364.47Q893.228 364.942 893.874 365.447Q894.52 365.952 895.14 366.488Q895.759 367.025 896.351 367.592Q896.943 368.159 897.506 368.755Q898.069 369.351 898.601 369.975Q899.133 370.598 899.633 371.248Q900.134 371.897 900.601 372.571Q901.068 373.244 901.501 373.941Q901.933 374.637 902.331 375.354Q902.728 376.071 903.089 376.807Q903.449 377.543 903.773 378.296Q904.096 379.05 904.381 379.818Q904.667 380.587 904.913 381.369Q905.159 382.15 905.366 382.944Q905.573 383.737 905.74 384.539Q905.907 385.342 906.033 386.152C907.522 395.361 904.259 404.718 898.86 412.131C892.924 420.282 885.454 424.367 875.617 425.925C866.562 426.443 858.086 425.156 850.738 419.455C843.652 413.958 839.162 405.247 838.087 396.402C836.943 386.996 839.874 377.269 845.72 369.854C851.717 362.248 859.609 358.767 869.055 357.679Z"/>
	<path fill="#010101" d="M176.329 292.199C176.457 292.183 176.584 292.161 176.713 292.15C190.569 290.966 205.228 295.755 215.814 304.754Q216.812 305.596 217.767 306.487Q218.722 307.377 219.633 308.313Q220.543 309.249 221.406 310.228Q222.27 311.208 223.084 312.228Q223.898 313.249 224.662 314.309Q225.425 315.368 226.135 316.463Q226.846 317.559 227.501 318.688Q228.157 319.817 228.757 320.977Q229.357 322.137 229.899 323.325Q230.441 324.513 230.924 325.726Q231.407 326.939 231.83 328.174Q232.253 329.409 232.615 330.664Q232.977 331.918 233.277 333.189Q233.577 334.46 233.814 335.744Q234.052 337.028 234.226 338.322Q234.4 339.616 234.51 340.917C235.672 355.549 231.245 370.464 221.64 381.643Q220.787 382.647 219.886 383.609Q218.985 384.57 218.038 385.486Q217.091 386.403 216.101 387.272Q215.111 388.141 214.079 388.961Q213.048 389.781 211.977 390.549Q210.907 391.318 209.801 392.033Q208.694 392.749 207.554 393.41Q206.415 394.07 205.244 394.675Q204.073 395.279 202.874 395.826Q201.675 396.372 200.451 396.86Q199.227 397.348 197.981 397.775Q196.734 398.202 195.468 398.568Q194.203 398.934 192.921 399.238Q191.639 399.542 190.343 399.784Q189.048 400.025 187.742 400.202Q186.437 400.38 185.124 400.494C171.32 401.865 157.418 398.545 146.459 389.851Q145.396 389.009 144.375 388.116Q143.354 387.223 142.379 386.28Q141.403 385.338 140.475 384.349Q139.547 383.359 138.669 382.326Q137.791 381.292 136.965 380.216Q136.139 379.14 135.367 378.025Q134.595 376.91 133.879 375.758Q133.163 374.607 132.504 373.421Q131.845 372.235 131.246 371.019Q130.646 369.802 130.107 368.557Q129.568 367.313 129.092 366.043Q128.615 364.773 128.201 363.482Q127.787 362.19 127.437 360.879Q127.088 359.569 126.803 358.243Q126.518 356.917 126.299 355.578Q126.08 354.24 125.927 352.892C124.285 338.54 129.061 323.658 138.123 312.482C147.876 300.454 161.019 293.74 176.329 292.199Z"/>
	<path fill="#FEFEFE" d="M174.302 294.667C186.984 293.749 198.201 295.507 209.023 302.526Q210.09 303.213 211.122 303.952Q212.153 304.692 213.147 305.481Q214.141 306.27 215.095 307.108Q216.048 307.945 216.959 308.829Q217.87 309.712 218.737 310.64Q219.603 311.567 220.422 312.536Q221.242 313.506 222.012 314.514Q222.783 315.523 223.502 316.568Q224.222 317.614 224.889 318.693Q225.556 319.773 226.169 320.884Q226.782 321.996 227.339 323.136Q227.896 324.276 228.396 325.443Q228.897 326.609 229.339 327.799Q229.78 328.989 230.163 330.199Q230.545 331.409 230.868 332.636Q231.19 333.864 231.451 335.106C234.324 348.696 231.351 363.914 223.622 375.458C215.115 388.165 202.159 395.107 187.432 398.001C187.288 398.026 187.143 398.053 186.998 398.076C174.095 400.135 159.843 396.899 149.257 389.231Q148.223 388.468 147.228 387.656Q146.233 386.843 145.278 385.983Q144.324 385.122 143.414 384.216Q142.503 383.309 141.638 382.359Q140.773 381.409 139.956 380.418Q139.139 379.426 138.371 378.396Q137.604 377.365 136.888 376.298Q136.172 375.231 135.509 374.13Q134.847 373.03 134.239 371.898Q133.632 370.765 133.08 369.605Q132.529 368.444 132.036 367.258Q131.542 366.072 131.107 364.863Q130.673 363.653 130.298 362.424Q129.924 361.195 129.61 359.949Q129.296 358.703 129.044 357.444Q128.792 356.184 128.602 354.913Q128.41 353.632 128.28 352.344Q128.151 351.055 128.085 349.762Q128.019 348.468 128.017 347.173Q128.014 345.878 128.075 344.584Q128.137 343.291 128.261 342.002Q128.386 340.713 128.573 339.431Q128.761 338.15 129.011 336.879Q129.262 335.608 129.574 334.352Q129.886 333.095 130.26 331.855Q130.634 330.615 131.068 329.394Q131.502 328.174 131.995 326.977Q132.488 325.779 133.04 324.608Q133.591 323.436 134.2 322.293Q134.808 321.149 135.472 320.037Q136.136 318.925 136.853 317.847Q137.57 316.769 138.34 315.727C147.182 303.811 159.717 296.772 174.302 294.667Z"/>
	<path fill="#010101" d="M180.099 307.271L180.922 307.825C182.573 310.665 181.297 331.735 181.489 336.811C186.027 340.152 186.243 341.986 188.856 346.504C193.422 348.019 204.859 346.335 210.368 346.747C211.76 346.85 212.259 346.979 213.124 348.065C210.676 349.983 202.908 349.108 199.663 349.089Q193.923 349.288 188.182 349.42C186.944 350.956 185.578 352.663 183.812 353.598C181.798 354.664 179.297 354.93 177.13 354.186Q176.725 354.045 176.337 353.863Q175.948 353.682 175.58 353.462Q175.212 353.242 174.868 352.987Q174.523 352.731 174.207 352.442Q173.89 352.153 173.604 351.833Q173.318 351.514 173.066 351.167Q172.813 350.821 172.597 350.45Q172.381 350.08 172.203 349.69Q172.021 349.299 171.881 348.891Q171.74 348.484 171.643 348.063Q171.546 347.643 171.494 347.215Q171.441 346.787 171.434 346.356Q171.426 345.925 171.464 345.495Q171.501 345.066 171.583 344.642Q171.665 344.219 171.791 343.807Q171.917 343.394 172.085 342.997C173.389 339.839 176.028 338.384 179.01 337.076C179.126 330.685 177.948 311.921 180.099 307.271Z"/>
	<path fill="#FEFEFE" d="M178.036 339.977C178.815 339.944 179.628 339.909 180.399 340.045C182.264 340.372 183.866 341.789 184.805 343.39Q184.975 343.677 185.113 343.98Q185.251 344.283 185.356 344.6Q185.46 344.916 185.53 345.242Q185.6 345.568 185.634 345.9Q185.668 346.231 185.666 346.565Q185.664 346.898 185.626 347.229Q185.589 347.56 185.515 347.886Q185.442 348.211 185.334 348.526C184.628 350.61 183.296 351.267 181.433 352.076C181.115 352.059 180.796 352.046 180.478 352.025C178.362 351.881 176.267 351.201 174.931 349.458C174.051 348.311 173.756 346.896 173.991 345.487C174.428 342.862 176.037 341.54 178.036 339.977Z"/>
	<path fill="#ED3434" d="M729.159 189.077C735.772 199.264 743.905 208.786 751.321 218.429C761.685 231.903 771.785 245.658 782.337 258.974C771.244 258.915 760.062 258.593 748.977 258.888C753.041 265.844 758.098 272.295 762.85 278.789C771.449 290.541 780.281 302.309 788.273 314.475C776.398 314.485 764.496 314.331 752.624 314.535C758.492 323.466 764.153 332.511 769.925 341.503C773.71 347.399 777.972 353.28 781.089 359.56C773.101 359.547 734.741 358.445 730.035 360.119C712.737 340.981 696.075 321.255 678.875 302.023C682.973 297.277 686.508 291.837 690.138 286.713Q699.905 273 709.147 258.928C698.478 258.642 687.669 258.228 677.01 258.779C684.412 246.392 693.894 234.954 702.655 223.504C711.43 212.038 719.973 200.207 729.159 189.077Z"/>
	<path fill="#5C6FB5" d="M305.871 130.211C319.713 128.88 334.65 134.071 345.57 142.452Q346.671 143.315 347.73 144.229Q348.788 145.144 349.801 146.109Q350.814 147.074 351.779 148.086Q352.744 149.099 353.66 150.156Q354.575 151.214 355.438 152.315Q356.301 153.416 357.111 154.557Q357.92 155.698 358.673 156.877Q359.426 158.056 360.121 159.269Q360.817 160.483 361.453 161.729Q362.089 162.975 362.664 164.25Q363.239 165.525 363.752 166.827Q364.265 168.128 364.715 169.453Q365.165 170.777 365.55 172.122Q365.935 173.467 366.255 174.829Q366.575 176.19 366.829 177.566Q367.083 178.942 367.27 180.328C369.332 196.125 365.702 213.134 355.855 225.856C345.468 239.277 330.876 246.366 314.331 248.471C298.609 248.776 284.124 245.386 271.909 234.973C259.523 224.416 251.574 210.078 250.419 193.76C249.253 177.27 254.854 161.649 265.716 149.204C276.032 137.385 290.447 131.358 305.871 130.211Z"/>
	<path fill="#010101" d="M483.465 402.296C476.095 399.899 470.508 397.285 466.809 389.965C461.999 380.447 462.811 366.441 466.217 356.592C469.752 346.366 477.355 337.144 487.168 332.419C497.577 327.407 513.594 326.497 524.468 330.319C534.798 333.951 543.52 342.035 548.237 351.887C553.217 362.288 553.945 373.727 550.032 384.591C547.588 391.376 542.82 395.069 539.197 400.946C536.752 404.911 535.417 409.732 532.404 413.317C530.538 415.538 528.353 417.092 525.724 418.302Q523.17 419.468 520.502 420.344C520.478 429.684 520.296 439.053 520.519 448.39C530.74 448.75 540.822 449.562 551.072 449.695C562.569 449.845 583.602 448.124 593.612 450.797C602.212 453.093 609.79 458.1 615.813 464.59C623.907 473.311 627.789 483.721 631.399 494.821C675.681 494.664 709.37 490.191 743.98 524.743C749.767 530.521 754.723 537.053 759.161 543.908C773.623 566.244 775.163 586.67 775.069 612.486C774.949 645.35 775.387 678.321 774.672 711.171C777.58 713.167 779.439 715.48 780.11 719.051C781.577 726.855 775.956 732.179 775.066 739.206C773.706 749.946 775.029 764.884 774.922 776.165Q784.001 776.32 793.082 776.344L793.04 732.472C793.04 719.573 791.972 705.767 795.053 693.183C797.763 682.114 803.139 671.968 811.235 663.896Q812.325 662.799 813.468 661.757Q814.611 660.716 815.803 659.732Q816.996 658.748 818.236 657.824Q819.476 656.9 820.76 656.038Q822.044 655.177 823.37 654.38Q824.695 653.582 826.057 652.852Q827.42 652.121 828.817 651.458Q830.215 650.796 831.643 650.203Q833.071 649.61 834.527 649.089Q835.983 648.567 837.462 648.118Q838.942 647.669 840.442 647.293Q841.942 646.918 843.459 646.617Q844.976 646.316 846.505 646.09Q848.035 645.865 849.574 645.715Q851.113 645.565 852.658 645.491Q854.203 645.417 855.749 645.42Q857.251 645.435 858.751 645.524Q860.25 645.613 861.744 645.775Q863.237 645.938 864.721 646.173Q866.204 646.409 867.674 646.717Q869.145 647.026 870.598 647.406Q872.051 647.786 873.484 648.237Q874.917 648.688 876.326 649.209Q877.735 649.73 879.117 650.319Q880.498 650.909 881.849 651.566Q883.2 652.222 884.517 652.945Q885.835 653.667 887.115 654.453Q888.395 655.239 889.635 656.087Q890.874 656.935 892.071 657.844Q893.268 658.751 894.418 659.717Q895.569 660.683 896.671 661.704Q897.773 662.725 898.823 663.799C907.411 672.627 913.523 684.603 915.926 696.657C917.987 706.998 917.202 717.908 917.122 728.402L917.124 762L917.181 849.026C917.187 865.713 917.453 882.455 917.139 899.135C917.002 906.406 915.242 912.832 909.731 917.954C908.554 919.049 907.247 919.997 905.997 921.006L948.999 920.918C955.987 920.887 963.175 920.408 970.144 920.81C971.438 920.885 972.469 920.805 973.446 921.722L973.336 922.771C972.612 923.304 972.273 923.352 971.36 923.413C961.229 924.094 950.678 923.46 940.494 923.485C930.242 923.51 919.448 924.25 909.271 923.42C899.504 923.789 889.602 923.467 879.824 923.439L825.338 923.274L790.827 923.311L651.626 923.313L291.374 923.323C281.65 923.715 271.768 923.362 262.03 923.366L204.206 923.326L195.198 923.338C186.935 923.672 178.547 923.389 170.272 923.394L121.134 923.302Q97.668 923.52 74.2009 923.441C68.0402 923.437 61.5865 923.991 55.4672 923.629C54.0594 923.545 53.174 923.596 52.1284 922.632L52.1642 921.455C52.4547 921.23 52.6921 920.91 53.0356 920.778C55.2924 919.913 111.031 920.681 119.064 920.678C112.796 915.779 108.152 910.417 107.12 902.139C105.828 891.762 106.978 879.651 106.946 869.1Q106.697 830.251 106.931 791.403L106.786 733.787C106.726 722.378 105.789 710.237 107.516 698.945Q107.817 697.003 108.242 695.084Q108.668 693.166 109.216 691.278Q109.765 689.391 110.434 687.543Q111.103 685.695 111.889 683.894Q112.676 682.093 113.578 680.347Q114.479 678.6 115.491 676.916Q116.503 675.231 117.622 673.615Q118.74 671.999 119.961 670.459Q120.939 669.229 121.976 668.048Q123.013 666.868 124.107 665.74Q125.201 664.612 126.35 663.54Q127.498 662.467 128.697 661.452Q129.897 660.437 131.145 659.483Q132.393 658.528 133.687 657.636Q134.981 656.744 136.317 655.917Q137.653 655.09 139.028 654.329Q140.403 653.569 141.814 652.877Q143.225 652.185 144.668 651.564Q146.111 650.942 147.583 650.393Q149.055 649.843 150.553 649.366Q152.05 648.89 153.569 648.487Q155.088 648.085 156.625 647.758Q158.162 647.431 159.713 647.18Q161.264 646.929 162.826 646.755C178.525 644.989 196.177 650.141 208.506 660.015C220.58 669.684 228.796 685.152 230.426 700.492C231.415 709.799 230.97 719.442 230.983 728.799L231.014 775.717C236.416 775.664 241.827 775.541 247.228 775.616C247.966 732.371 247.36 689.058 247.49 645.803C247.554 624.132 245.465 594.9 250.479 574.331Q250.934 572.494 251.453 570.674Q251.973 568.854 252.555 567.054Q253.137 565.253 253.782 563.474Q254.426 561.695 255.132 559.939Q255.839 558.184 256.606 556.454Q257.373 554.724 258.199 553.021Q259.026 551.319 259.912 549.647Q260.798 547.974 261.741 546.334Q262.684 544.693 263.684 543.087Q264.684 541.48 265.74 539.91Q266.795 538.339 267.905 536.806Q269.014 535.273 270.176 533.779Q271.339 532.286 272.552 530.834Q273.766 529.382 275.029 527.973Q276.293 526.564 277.605 525.2Q278.916 523.836 280.275 522.519C294.161 509.152 313.129 499.183 332.225 496.071C345.745 493.867 368.715 494.435 382.893 494.755Q386.631 494.842 390.367 494.971C393.424 479.86 397.487 464.885 411.192 455.899C423.968 447.523 438.774 449.32 453.308 449.411Q468.39 449.535 483.471 449.36C483.481 433.676 483.628 417.979 483.465 402.296Z"/>
	<path fill="#5C6FB5" d="M566.061 473.667C566.73 474.002 566.642 473.915 567.163 474.307C571.867 477.844 574.206 482.506 574.876 488.224C572.049 486.839 570.997 482.994 567.056 480.969C566.849 480.862 566.639 480.76 566.43 480.655C565.55 478.889 566.031 475.655 566.061 473.667Z"/>
	<path fill="#FEFEFE" d="M719.98 712.713C720.411 712.987 720.8 713.403 721.18 713.745C721.41 715.546 721.565 717.283 721.438 719.102C721.054 724.574 718.853 730.3 714.582 733.901C708.751 738.82 696.335 737.387 689.158 736.664C688.564 735.896 688.414 735.489 688.304 734.526C689.966 733.045 704.658 734.331 709.429 733.048C720.181 730.156 715.392 719.713 719.48 713.435C719.639 713.189 719.814 712.954 719.98 712.713Z"/>
	<path fill="#ED3434" d="M516.469 451.638C521.952 451.213 527.574 451.414 533.067 451.537C535.694 453.274 537.859 455.587 540.108 457.777C537.428 457.872 534.737 457.877 532.055 457.921L506.718 457.85C509.697 454.372 511.899 452.504 516.469 451.638Z"/>
	<path fill="#FEFEFE" d="M565.819 464.074C570.872 465.563 575.809 468.465 579.149 472.573C586.151 481.187 584.751 493.443 583.8 503.754C573.248 488.408 582.166 484.004 565.748 469.752L565.819 464.074Z"/>
	<path fill="#ED3434" d="M771.848 743.93C773.104 746.055 772.501 771.715 772.538 776.183L746.191 776.025C745.973 775.884 746.127 776.005 745.951 775.488C746.785 774.951 747.606 774.398 748.432 773.85C754.485 769.84 767.618 750.565 771.848 743.93Z"/>
	<path fill="#FEFEFE" d="M310.021 592.635C322.133 591.764 334.425 593.293 346.531 593.871C353.208 594.19 360.198 593.753 366.81 594.427C368.059 594.555 369.047 594.805 370.185 595.323L370.29 596.053C365.943 598.839 332.817 595.842 325.997 595.386C318.569 594.889 307.732 593.357 301.796 598.827C293.133 606.811 296.068 630.177 298.237 640.542C300.973 653.62 307.135 667.241 306.446 680.802C305.482 699.788 295.316 711.181 294.363 729.763C293.8 742.116 295.643 755.623 301.898 766.479C303.377 769.045 308.072 773.323 308.306 775.697L307.504 776.345C306.656 776.152 306.668 776.248 306.075 775.873C300.526 772.365 297.723 765.305 295.63 759.414C290.381 744.637 289.758 725.603 295.336 710.821C298.917 701.334 303.017 692.871 303.61 682.532C304.365 669.35 299.405 658.116 296.505 645.529C293.739 633.522 290.411 610.585 297.493 599.905C300.607 595.21 304.829 593.821 310.021 592.635Z"/>
	<path fill="#5C6FB5" d="M547.681 538.431L593.192 538.641C596.383 544.084 600.336 549.223 604.135 554.254Q578.879 553.96 553.622 553.971Q550.495 546.261 547.681 538.431Z"/>
	<path fill="#FEFEFE" d="M566.032 483.312C577.303 489.332 587.709 523.342 592.754 535.958L570.25 535.85Q558.294 535.912 546.343 535.544L543.701 529.888C549.296 528.648 554.551 526.953 558.856 522.948C569.837 512.73 565.682 496.542 566.032 483.312Z"/>
	<path fill="#FEFEFE" d="M444.08 694.75L560.143 694.911L602.756 694.926C609.936 694.928 617.256 694.628 624.419 695.013C626.384 695.118 629.063 695.491 630.617 696.824C631.926 697.947 632.512 700.266 632.459 701.93C632.412 703.415 631.702 704.724 630.619 705.715C629.114 707.093 627.041 707.77 625.064 708.103C621.077 708.777 616.552 708.317 612.503 708.287L590.875 708.221L463.351 708.23L425.492 708.231C420.213 708.245 414.876 708.576 409.606 708.417C408.408 708.38 407.245 708.241 406.199 707.598C404.219 706.381 403.542 703.885 403.281 701.727C403.08 700.064 403.335 698.864 404.477 697.603C405.724 696.226 407.881 695.515 409.646 695.173C416.31 693.882 436.08 694.769 444.08 694.75Z"/>
	<path fill="#FEFEFE" d="M506.811 460.249Q535.039 460.042 563.267 460.132C563.047 474.462 564.309 488.925 563.714 503.229C563.394 510.911 561.44 516.813 555.691 522.071C553.783 523.363 551.855 524.559 549.673 525.337C542.583 527.861 522.946 527.863 516.267 524.428C510.701 521.565 506.606 516.123 504.894 510.152C504.282 508.017 503.998 505.809 503.886 503.596C503.667 499.247 503.633 462.176 504.42 460.984C504.87 460.302 506.041 460.369 506.811 460.249Z"/>
	<path fill="#FEFEFE" d="M495.278 349.886C499.975 358.128 501.448 363.944 510.057 369.38C518.744 370.278 527.593 369.284 536.326 369.952C536.382 378.235 537.528 393.523 535.893 401.118Q535.594 402.475 535.132 403.785Q534.67 405.096 534.054 406.34Q533.437 407.585 532.673 408.746Q531.91 409.907 531.012 410.967C526.017 416.963 517.35 419.535 509.722 418.108C507.241 417.643 504.853 416.495 502.307 416.745L501.869 417.381L502.318 418.416C506.467 421.131 513.199 421.075 517.983 421.004Q517.855 434.899 517.962 448.793C508.763 450.786 508.703 453.459 502.037 458.507L501.595 458.835L501.474 483.112C499.174 482.124 496.785 481.047 494.66 479.71C491.445 477.687 489.114 475.221 487.792 471.627C484.609 462.969 485.78 423.857 486.04 412.596C486.142 408.173 486.967 403.146 486.004 398.833C484.586 397.502 479.376 397.431 477.295 396.897C474.509 396.182 472.42 393.646 471.059 391.223C469.458 388.374 469.211 385.64 470.114 382.523C470.914 379.759 472.291 377.417 474.912 376.05C479.966 373.415 485.514 375.599 490.585 377.008C493.893 372.418 487.103 359.846 495.278 349.886Z"/>
	<path fill="#ED3434" d="M471.978 779.744C489.696 779.315 507.481 779.577 525.206 779.562C534.352 779.555 545.596 778.547 554.52 780.082C557.099 780.526 558.513 781.207 559.981 783.423C561.277 785.38 561.852 788.115 561.605 790.437C560.981 796.321 559.116 802.283 557.719 808.036Q554.121 823.054 550.277 838.011Q541.798 870.709 534.206 903.624Q532.082 912.243 530.135 920.903L495.313 920.94C488.191 894.846 481.873 868.499 474.867 842.361Q470.238 825.279 465.81 808.144C464.323 802.308 462.398 796.137 461.702 790.151C461.404 787.595 461.823 785.108 463.565 783.105C465.833 780.497 468.7 780.004 471.978 779.744Z"/>
	<path fill="#5C6FB5" d="M537.639 451.963Q551.681 452.232 565.725 452.223C583.858 452.092 597.702 450.423 611.921 464.031C616.649 468.556 620.309 473.957 623.105 479.857C626.175 486.337 628.262 493.409 630.815 500.121C636.584 515.288 642.329 530.532 648.318 545.612C655.546 563.815 662.712 582.078 670.183 600.182C674.524 610.701 679.69 621.31 683.295 632.09C685.176 637.713 685.942 643.447 686.007 649.365C686.135 660.946 682.045 672.488 673.811 680.81C659.008 695.772 642.08 691.596 623.329 691.843L624.027 685.25C627.163 665.521 628.815 645.402 631.165 625.557C633.003 610.036 635.751 594.355 636.692 578.761L645.985 591.247C647.816 593.69 659.278 609.42 661.257 609.703L661.44 608.617C660.064 604.283 642.039 581.261 638.09 576.287C637.759 570.163 636.144 564.413 631.675 559.944C624.92 553.187 615.804 554.24 607.083 554.355C604.076 549.337 600.039 544.894 597.288 539.743C592.199 530.21 589.151 518.547 585.237 508.418Q586.05 506.002 586.468 503.488C588.565 490.25 588.127 474.314 575.801 466.114C574.291 465.11 566.735 462.42 566.211 461.766C565.761 461.207 566.031 459.456 565.279 458.409C560.132 456.577 549.276 457.819 543.377 457.772C541.582 455.731 539.576 453.868 537.639 451.963Z"/>
	<path fill="#5C6FB5" d="M428.628 452.151C435.509 451.378 442.857 451.847 449.787 451.87L483.44 451.813C483.376 459.277 482.615 467.341 486.12 474.202C489.415 480.65 494.85 483.278 501.36 485.466C501.616 498.12 499.011 512.616 509.058 522.438C517.83 531.014 529.428 529.617 540.63 529.518Q545.657 541.822 551.004 553.989L449.463 554.189C449.875 551.764 450.806 548.713 450.365 546.304C450.137 545.057 450.413 545.497 449.446 544.819C446.98 547.003 446.979 551.08 446.575 554.142C438.758 553.989 430.532 553.438 422.76 554.094C416.973 554.583 411.444 556.76 407.72 561.378C400.4 570.455 404.84 592.539 405.895 603.879C406.923 616.429 408.31 628.95 409.327 641.503C410.706 658.51 411.72 675.576 413.384 692.555C402.963 692.646 395.764 691.332 387.214 685.201C376.265 677.35 368.499 664.04 366.475 650.764Q365.933 647.067 365.861 643.332Q365.789 639.597 366.187 635.882C367.069 627.487 369.038 619.072 370.475 610.749C373.495 593.266 376.609 575.922 379.953 558.493C383.356 540.76 386.694 523.126 390.536 505.476C392.125 498.176 393.426 490.593 395.574 483.443C397.372 477.457 399.995 471.18 403.79 466.169C409.9 458.103 418.708 453.513 428.628 452.151Z"/>
	<path fill="#ED3434" d="M633.243 497.262Q638.783 497.147 644.324 497.112C655.843 497.014 667.646 496.442 679.131 497.398Q681.335 497.567 683.53 497.833Q685.725 498.099 687.907 498.461Q690.088 498.823 692.251 499.28Q694.414 499.738 696.555 500.291Q698.696 500.843 700.81 501.489Q702.925 502.135 705.009 502.873Q707.093 503.612 709.143 504.441Q711.192 505.27 713.204 506.189Q715.215 507.108 717.183 508.114Q719.152 509.12 721.075 510.212Q722.998 511.304 724.87 512.479Q726.743 513.654 728.562 514.911Q730.382 516.167 732.144 517.503Q733.906 518.838 735.608 520.25Q737.31 521.661 738.948 523.146Q740.586 524.631 742.157 526.187C753.785 537.731 763.918 553.403 768.549 569.189C775.081 591.459 772.634 616.839 772.553 639.859L772.485 710.677C764.727 709.793 761.069 714.006 751.959 713.411L743.043 713.102C740.298 703.459 734.135 694.217 732.664 684.355C730.712 671.268 740.45 663.477 739.978 652.181C739.837 648.811 738.586 645.258 735.982 643.005C726.456 634.764 716.017 648.171 707.815 651.347C701.937 653.624 694.877 653.74 688.666 654.208C688.647 648.168 688.627 641.87 687.053 635.999C683.193 621.592 675.8 607.356 670.124 593.512Q655.46 557.495 641.6 521.16C639.661 516.114 633.279 502.022 633.243 497.262Z"/>
	<path fill="#ED3434" d="M670.529 778.443Q731.968 778.287 793.403 778.993Q793.879 825.46 793.868 871.93C793.879 888.136 794.254 904.449 793.742 920.641L792.699 920.678C764.89 920.362 737.06 920.72 709.247 920.665L681.478 920.636C676.581 920.638 671.235 920.291 666.393 920.937C654.646 919.983 641.665 920.947 629.809 921.053C635.289 898.101 642.325 875.447 648.815 852.768C655.901 828.004 662.617 802.947 670.529 778.443Z"/>
	<path fill="#ED3434" d="M230.722 778.345Q295.98 777.898 361.237 778.472C370.287 813.307 380.414 847.895 389.56 882.721C392.851 895.254 397.085 908.116 399.494 920.809L289.366 920.681C269.931 920.153 250.383 920.799 230.929 920.625L230.987 823.988L231.06 795.853C231.071 790.071 231.348 784.093 230.722 778.345Z"/>
	<path fill="#FEFEFE" d="M420.253 556.637C433.675 555.933 447.386 556.479 460.848 556.452L546.317 556.532L596.197 556.562C604.129 556.584 612.676 555.893 620.507 556.924C624.967 557.512 628.636 559.879 631.345 563.438C633.926 566.829 634.661 569.73 634.75 573.991C634.862 579.418 633.864 585.026 633.22 590.406L629.886 617.753C626.806 642.574 624.31 667.536 620.804 692.295C611.181 692.833 601.317 692.422 591.671 692.431L538.611 692.369Q477.282 692.115 415.954 692.52C413.554 670.768 412.58 648.798 410.596 626.991L407.614 594.567C406.963 587.414 406.012 580.077 406.202 572.89C406.284 569.788 406.892 567.29 408.565 564.655C411.305 560.337 415.363 557.81 420.253 556.637Z"/>
	<path fill="#F7C11B" d="M517.954 615.568C521.025 615.478 523.415 616.16 526.033 617.81C529.023 619.694 531.101 622.898 531.851 626.328Q532.005 627.024 532.086 627.733Q532.167 628.441 532.175 629.154Q532.182 629.867 532.117 630.577Q532.051 631.287 531.913 631.986Q531.775 632.686 531.565 633.367Q531.355 634.049 531.077 634.705Q530.798 635.361 530.454 635.985Q530.109 636.61 529.702 637.195C527.126 640.885 523.901 642.143 519.659 643.009C516.767 642.878 514.153 642.552 511.546 641.203C508.533 639.643 506.219 637.002 505.299 633.709Q505.112 633.032 504.994 632.339Q504.877 631.647 504.831 630.946Q504.785 630.245 504.81 629.543Q504.836 628.84 504.932 628.145Q505.029 627.449 505.197 626.766Q505.364 626.084 505.6 625.422Q505.836 624.761 506.138 624.126Q506.44 623.492 506.805 622.892C509.375 618.675 513.282 616.643 517.954 615.568Z"/>
	<path fill="#ED3434" d="M796.34 880.63L795.99 749.41Q796.016 735.876 795.862 722.343C795.773 713.908 795.081 704.963 796.712 696.658Q796.92 695.553 797.17 694.458Q797.42 693.362 797.712 692.276Q798.003 691.191 798.336 690.117Q798.669 689.043 799.042 687.983Q799.415 686.923 799.828 685.877Q800.241 684.832 800.694 683.803Q801.147 682.774 801.638 681.764Q802.13 680.753 802.659 679.761Q803.189 678.77 803.756 677.799Q804.322 676.829 804.926 675.88Q805.529 674.932 806.168 674.007Q806.807 673.082 807.481 672.182Q808.154 671.283 808.862 670.409Q809.569 669.536 810.309 668.69Q811.049 667.844 811.821 667.027Q812.593 666.209 813.395 665.422Q814.444 664.369 815.544 663.37Q816.645 662.371 817.794 661.429Q818.943 660.487 820.138 659.603Q821.333 658.72 822.572 657.898Q823.81 657.075 825.087 656.316Q826.365 655.557 827.679 654.864Q828.994 654.17 830.341 653.543Q831.689 652.916 833.066 652.358Q834.443 651.799 835.847 651.311Q837.25 650.823 838.677 650.405Q840.103 649.988 841.549 649.643Q842.994 649.298 844.455 649.026Q845.917 648.754 847.389 648.556Q848.862 648.357 850.343 648.233Q851.824 648.109 853.31 648.06Q854.795 648.011 856.281 648.036Q857.736 648.063 859.187 648.161Q860.639 648.26 862.084 648.431Q863.528 648.601 864.963 648.843Q866.398 649.085 867.819 649.398Q869.239 649.711 870.643 650.094Q872.047 650.476 873.43 650.928Q874.812 651.38 876.171 651.9Q877.53 652.42 878.862 653.007Q880.193 653.593 881.494 654.245Q882.794 654.897 884.061 655.613Q885.328 656.328 886.558 657.105Q887.787 657.883 888.977 658.72Q890.167 659.558 891.314 660.453Q892.46 661.348 893.562 662.299Q894.662 663.251 895.715 664.255Q896.768 665.26 897.769 666.315C905.922 674.796 911.472 686.359 913.573 697.897C915.231 707.004 914.584 716.785 914.581 726.028L914.555 766.35L914.48 850.507C914.482 866.692 914.839 882.967 914.41 899.138C914.239 905.561 913.228 911.027 908.379 915.729C905.286 918.728 901.937 919.923 897.769 920.586Q872.549 920.483 847.33 920.702L796.358 920.574Q796.502 900.602 796.34 880.63Z"/>
	<path fill="#ED3434" d="M131.134 920.735C125.567 920.534 120.495 918.775 116.334 914.963C110.49 909.609 109.827 903.128 109.63 895.677C109.247 881.118 109.556 866.468 109.549 851.901L109.454 768.76L109.31 725.99C109.278 716.779 108.528 706.729 110.242 697.653Q110.626 695.576 111.159 693.532Q111.692 691.488 112.371 689.488Q113.05 687.488 113.871 685.542Q114.693 683.596 115.653 681.715Q116.612 679.833 117.706 678.026Q118.799 676.219 120.019 674.495Q121.24 672.771 122.582 671.14Q123.924 669.509 125.38 667.979C136.214 656.632 151.963 649.124 167.756 648.921C183.394 648.72 200.092 655.171 211.285 666.137C218.809 673.508 224.356 683.478 226.743 693.731C229.967 707.579 228.291 730.488 228.227 745.149Q228.12 779.932 228.513 814.711C227.698 826.875 228.319 839.41 228.321 851.622L228.397 920.68L179.166 920.723Q155.15 920.6 131.134 920.735Z"/>
	<path fill="#F7C11B" d="M404.524 710.709C419.196 709.992 434.117 710.612 448.817 710.639L530.017 710.687L596.817 710.588C609.855 710.547 629.458 709.101 641.812 712.116C652.259 714.667 661.375 720.609 666.964 729.916C671.796 737.963 673.708 746.767 673.009 756.093C672.256 766.135 668.447 776.001 665.629 785.624C662.184 797.394 658.901 809.197 655.354 820.939Q648.492 844.236 641.865 867.601C636.767 885.301 631.517 903.06 627.155 920.954L532.657 920.97C539.815 890.649 547.824 860.472 554.757 830.111C557.002 820.778 564.475 796.097 563.865 788.092C563.628 784.981 562.553 781.889 560.053 779.884C557.842 778.111 554.995 777.448 552.231 777.176C547.228 776.683 541.997 776.988 536.959 776.995L509.479 777.031L484.563 776.917C479.827 776.896 474.815 776.52 470.126 777.187C466.46 777.709 463.413 778.878 461.229 781.998C459.476 784.504 458.877 787.45 459.136 790.471C459.97 800.211 464.432 812.509 466.961 822.131L484.724 889.306C487.304 899.396 490.507 909.67 492.252 919.927L492.38 920.703C462.319 921.253 432.201 920.942 402.133 920.933C399.335 910.828 396.957 900.569 394.285 890.424L374.69 817.252C371.582 805.825 368.156 794.487 364.98 783.08C362.828 775.351 360.09 767.097 359.608 759.053C358.877 746.867 362.484 734.317 370.701 725.126C379.765 714.989 391.385 711.531 404.524 710.709Z"/>
</svg>
