<?xml version="1.0" encoding="utf-8" ?>
<svg xmlns="http://www.w3.org/2000/svg" xmlns:xlink="http://www.w3.org/1999/xlink" width="1024" height="1024">
	<path fill="#FEFEFE" d="M0 0L1024 0L1024 1024L0 1024L0 0Z"/>
	<path fill="#F16F6E" d="M903.045 565.335C894.979 540.175 893.583 531.096 905.573 506.782C906.505 504.893 908.364 502.422 910.07 501.207C909.515 505.008 905.754 510.028 904.112 513.673C895.548 532.692 898.288 546.108 904.927 565.002C909.011 577.562 910.474 589.037 904.312 601.229C903.101 603.625 901.658 605.798 900.1 607.979L896.807 607.956C899.099 606.304 900.709 603.952 902.08 601.512C908.416 590.235 906.43 577.17 903.045 565.335Z"/>
	<path fill="#0C1114" d="M250.734 536.53C258.164 524.223 266.99 513.133 278.571 504.478C294.84 492.319 315.843 483.919 336.125 482.186C344.09 481.505 352.313 481.936 360.31 481.959L395.322 482.064L424.105 482.123C429.316 482.124 435.016 481.679 440.164 482.414L440.468 483.249L439.505 484.778C418.661 485.275 397.719 484.905 376.868 484.748C363.663 484.648 349.934 483.792 336.778 484.965C311.872 487.186 286.374 498.499 269.005 516.657C262.308 523.659 256.789 531.687 252.103 540.145C251.306 538.835 250.913 538.095 250.734 536.53Z"/>
	<path fill="#99C4BB" d="M71.761 637.755C61.6044 634.609 54.8915 630.583 47.1021 623.319C43.7778 620.219 40.5952 617.038 38.1734 613.164C31.9391 603.191 28.7197 589.054 31.4013 577.476C33.9506 566.47 40.8791 556.069 50.5066 550.082C61.9094 542.991 74.4936 541.54 87.4235 544.707C98.2109 547.349 108.619 554.741 114.444 564.25L116.654 566.013C123.92 580.511 113.374 598.715 114.01 613.963C114.751 631.738 134.793 642.833 135.867 668.181C136.119 674.128 135.58 680.181 133.72 685.857C132.124 690.726 130.731 693.396 126.772 696.664C125.975 697.321 124.728 698.087 124.142 698.897Q120.264 684.144 114.336 670.09C113.454 668.002 112.69 665.298 110.459 664.393L110.176 664.853C110.246 667.894 119.717 692.336 121.331 698.776C104.304 693.235 89.1901 681.798 78.5305 667.452C70.5284 656.682 69.8209 650.732 71.761 637.755Z"/>
	<path fill="#0C1114" d="M112.998 635.083C113.847 635.269 114.39 635.502 115.162 635.877C115.437 636.616 115.52 637.179 115.519 637.969C115.512 642.745 114.454 659.075 111.369 662.161L110.287 662.159C108.954 661.025 108.75 658.996 108.361 657.35C100.455 652.936 91.1188 650.158 82.6322 646.983C80.9772 646.372 79.1243 645.877 77.811 644.667C78.0424 643.526 77.8053 643.598 78.826 642.861C87.0491 644.404 103.451 651.427 110.821 655.582C111.913 648.798 111.754 641.833 112.998 635.083Z"/>
	<path fill="#0C1114" d="M66.3853 582.343C66.8869 576.284 67.0829 558.172 69.8349 553.458L70.6373 553.326C72.0384 555.278 70.8135 561.917 70.618 564.546C70.1695 570.578 68.94 577.642 69.7403 583.616C70.3729 588.338 85.6145 617.517 88.7857 624.216Q100.237 593.643 114.444 564.25L116.654 566.013C110.009 576.263 101.057 600.618 96.3532 612.688C94.4323 617.617 92.8055 622.848 90.2928 627.497C92.2228 631.615 99.0374 643.851 98.7337 647.805L98.0771 647.88C92.6852 643.35 88.1391 628.007 84.4745 621.137L84.2348 620.696C79.7329 621.166 56.4807 625.476 54.3469 624.575C53.5132 624.223 53.7712 624.335 53.4246 623.409C56.1905 621.392 78.4972 618.764 83.1731 618.151C80.8705 612.668 69.8814 589.665 66.7261 586.299C61.6261 580.858 39.4261 571.128 37.5639 567.951C38.2052 566.85 38.2769 567.036 39.3961 566.603C43.863 567.575 61.1463 579.417 66.3853 582.343Z"/>
	<path fill="#99C4BB" d="M765.604 139.105C770.077 143.463 773.64 149.18 777.306 154.24L795.089 178.865C809.907 199.415 825.285 219.514 840.327 239.896C847.887 250.141 855.471 260.316 863.238 270.407C866.878 275.137 870.3 280.051 874.273 284.512L874.131 292.002L872.756 292L872.755 285.586L721.36 285.534L682.764 285.599C676.556 285.615 669.401 286.315 663.316 285.225C662.795 284.719 662.133 284.271 661.565 283.828C663.891 279.053 668.232 274.315 671.376 269.965L692.759 240.17L739.053 175.894C747.795 163.691 756.135 150.709 765.604 139.105Z"/>
	<path fill="#FEFEFE" d="M720.358 223.201L721.49 224.026C723.013 229.586 721.835 236.835 722.096 242.687C722.266 246.529 723.017 250.217 723.417 254.018C723.575 255.517 723.679 256.018 722.729 257.214C720.157 254.515 719.636 249.464 719.293 245.857C718.851 241.212 717.83 226.3 720.358 223.201Z"/>
	<path fill="#FEFEFE" d="M765.472 141.399C767.867 143.441 770.004 146.924 771.913 149.463C779.436 159.475 786.321 169.923 793.749 179.997L871.047 283.77C832.39 284.217 793.521 284.401 754.867 283.745C762.74 281.1 770.185 278.649 776.226 272.627C790.24 258.657 786.972 236.44 787.064 218.488L771.25 218.479L712.118 218.257C713.088 233.477 709.498 251.566 717.029 265.442C722.634 275.771 732.468 280.613 743.295 283.788C730.323 284.204 717.217 283.858 704.234 283.871C690.83 283.884 677.325 284.243 663.932 283.74C666.367 279.061 669.934 274.634 672.986 270.32L693.438 241.992L765.472 141.399Z"/>
	<path fill="#5576B9" d="M434.708 169.729C447.192 166.214 460.382 162.16 473.186 160.203C478.345 183.961 484.506 207.461 490.425 231.03L503.903 285.533C492.8 287.748 481.506 288.805 470.444 291.263C490.699 291.644 511.007 290.7 531.251 291.221C531.435 291.5 531.651 291.76 531.803 292.057C532.712 293.83 532.255 308.799 531.771 311.066C529.321 312.499 292.819 311.596 264.453 311.584C264.405 305.686 263.323 297.237 265.056 291.638C271.136 290.809 277.714 291.271 283.862 291.28C298.824 291.304 314.004 291.881 328.941 291.163C322.043 289.448 305.864 284.596 300.255 281.057C298.978 276.372 335.496 177.518 339.308 163.061C350.657 166.699 362.516 170.207 373.514 174.76C373.636 174.611 373.781 174.479 373.88 174.314C376.144 170.515 371.891 165.567 377.942 163.188C379.411 162.611 380.984 162.449 382.548 162.399C388.834 162.195 395.235 162.786 401.538 162.865C406.06 162.923 410.659 162.42 415.163 162.629C416.908 162.71 419.019 162.84 420.631 163.583C421.651 164.053 422.328 164.551 422.64 165.661C424.349 171.746 423.261 196.192 423.224 203.927Q423.269 247.536 422.603 291.14C434.971 291.082 447.48 290.719 459.834 291.227L465.479 291.318C460.627 272.518 456.697 253.519 451.887 234.708C446.335 212.995 439.937 191.523 434.708 169.729Z"/>
	<path fill="#FEFEFE" d="M476.852 201.547C477.967 201.546 477.806 201.4 478.802 202.129C479.248 203.529 479.538 203.755 478.978 205.088C475.116 207.995 458.558 211.057 453.007 212.392C452.423 212.592 451.933 212.692 451.329 212.789C451.242 212.671 451.14 212.563 451.069 212.435C450.439 211.303 450.346 209.374 450.776 208.17C455.993 205.89 470.385 203.223 476.852 201.547Z"/>
	<path fill="#FEFEFE" d="M301.079 280.386C305.182 269.386 308.573 257.996 312.297 246.853C321.429 219.527 330.405 192.006 340.373 164.978C348.387 167.308 365.921 172.349 372.604 176.267L372.139 178.608C361.592 208.269 351.428 237.998 340.555 267.547C337.685 275.349 335.131 283.353 332.073 291.072C321.938 287.05 311.238 284.425 301.079 280.386Z"/>
	<path fill="#FEFEFE" d="M460.746 292.628C483.907 293.599 507.235 292.193 530.417 292.245L530.353 310.314C500.621 309.583 470.698 310.257 440.94 310.256L265.745 310.255L265.745 292.636Q301.547 292.897 337.35 292.656C378.421 293.864 419.661 291.55 460.746 292.628Z"/>
	<path fill="#F16F6E" d="M373.514 174.76C373.636 174.611 373.781 174.479 373.88 174.314C376.144 170.515 371.891 165.567 377.942 163.188C379.411 162.611 380.984 162.449 382.548 162.399C388.834 162.195 395.235 162.786 401.538 162.865C406.06 162.923 410.659 162.42 415.163 162.629C416.908 162.71 419.019 162.84 420.631 163.583C421.651 164.053 422.328 164.551 422.64 165.661C424.349 171.746 423.261 196.192 423.224 203.927Q423.269 247.536 422.603 291.14C434.971 291.082 447.48 290.719 459.834 291.227L460.746 292.628C419.661 291.55 378.421 293.864 337.35 292.656L334.658 291.41L333.436 291.193L332.073 291.072C335.131 283.353 337.685 275.349 340.555 267.547C351.428 237.998 361.592 208.269 372.139 178.608L373.246 178.854L373.768 178.078C373.928 176.77 373.939 176.013 373.514 174.76Z"/>
	<path fill="#FEFEFE" d="M380.509 177.107C392.327 176.671 404.31 176.964 416.134 177.19C416.49 183.811 416.291 190.544 416.325 197.179L380.486 197.154L380.509 177.107Z"/>
	<path fill="#FEFEFE" d="M373.761 178.996C374.618 192.811 373.947 206.989 373.918 220.84L373.851 291.137Q354.256 291.442 334.658 291.41L333.436 291.193L373.761 178.996Z"/>
	<path fill="#FEFEFE" d="M380.466 201.4L416.347 201.423C416.527 228.908 416.826 256.47 416.298 283.948Q398.414 284.22 380.528 284.102L380.466 201.4Z"/>
	<path fill="#FEFEFE" d="M661.565 283.828C662.133 284.271 662.795 284.719 663.316 285.225C669.401 286.315 676.556 285.615 682.764 285.599L721.36 285.534L872.755 285.586L872.756 292L874.131 292.002Q874.502 327.83 874.265 363.66C874.261 374.346 875.193 390.077 873.858 400.297C873.611 402.192 873.389 402.717 872.057 404.106C871.263 404.439 870.655 404.651 869.782 404.681C862.378 404.932 854.847 404.639 847.433 404.629L800.164 404.578L661.227 404.543C661.893 391.781 661.52 378.834 661.504 366.054C661.47 338.661 661.062 311.214 661.565 283.828Z"/>
	<path fill="#F16F6E" d="M756.588 346.467L769.828 346.444C770.284 354.369 770.074 362.44 770.176 370.385L756.526 370.47L756.588 346.467Z"/>
	<path fill="#F16F6E" d="M679.08 346.246L753.517 346.495C753.542 350.592 754.626 367.933 753.347 370.439C728.255 370.082 703.157 371.138 678.059 370.717C678.006 363.949 677.12 353.99 678.146 347.681C678.335 346.521 678.086 346.984 679.08 346.246Z"/>
	<path fill="#5576B9" d="M661.565 283.828C662.133 284.271 662.795 284.719 663.316 285.225C662.222 298.498 663.024 312.425 663.041 325.771Q663.043 364.365 663.508 402.956L686.518 402.967L686.21 373.179C720.635 372.764 755.051 373.571 789.462 373.394C789.908 383.219 789.849 393.182 789.585 403.013L804.489 402.99C804.464 373.77 804.906 344.464 804.26 315.255C812.349 315.267 820.458 315.152 828.543 315.307L828.574 403.03L838.047 402.999C837.856 373.818 837.638 344.576 837.934 315.396L862.069 315.405L862.067 403.001L872.163 402.9C874.075 392.685 872.964 375.596 872.955 364.573Q873.087 328.286 872.756 292L874.131 292.002Q874.502 327.83 874.265 363.66C874.261 374.346 875.193 390.077 873.858 400.297C873.611 402.192 873.389 402.717 872.057 404.106C871.263 404.439 870.655 404.651 869.782 404.681C862.378 404.932 854.847 404.639 847.433 404.629L800.164 404.578L661.227 404.543C661.893 391.781 661.52 378.834 661.504 366.054C661.47 338.661 661.062 311.214 661.565 283.828Z"/>
	<path fill="#FEFEFE" d="M768.536 375.074L770.504 375.421C772.423 377.562 771.371 398.59 771.333 403.181C770.406 403.137 769.747 402.952 768.88 402.624C767.48 395.318 768.504 382.959 768.536 375.074Z"/>
	<path fill="#FEFEFE" d="M839.483 316.658Q849.938 316.828 860.393 316.644L860.461 402.99L839.552 403.007L839.483 316.658Z"/>
	<path fill="#FEFEFE" d="M805.956 316.623C812.973 316.744 820.005 316.657 827.024 316.666C826.569 345.415 826.897 374.231 826.979 402.986L806.037 402.965C806.337 374.203 806.064 345.386 805.956 316.623Z"/>
	<path fill="#0C1114" d="M520.105 439.707C509.052 439.315 499.56 436.987 491.788 428.581C484.943 421.178 481.072 410.398 481.607 400.339C482.173 389.709 486.701 378.612 494.778 371.499C502.172 364.986 511.874 362.057 521.646 362.767C532.185 363.532 541.388 368.921 548.18 376.888C555.596 385.589 558.399 396.627 557.357 407.893C556.393 418.315 551.744 419.927 549.594 427.396C547.691 434.004 548.611 442.861 548.532 449.788C578.972 451.978 610.927 469.016 630.802 492.098C638.403 500.925 645.629 510.845 651.085 521.134C660.565 539.011 666.73 558.384 673.288 577.461C677.918 590.927 683.21 604.982 686.028 618.957Q686.686 622.065 686.895 625.234Q687.104 628.404 686.86 631.571C686.037 641.197 681.531 650.448 674.056 656.64C671.847 658.47 661.145 663.958 660.521 665.248C660.264 665.778 660.25 667.047 660.155 667.675C661.479 673.126 660.455 687.278 660.029 693.134L660.002 696.271C660.002 704.524 661.065 741.331 659.142 746.507C653.693 748.694 598.321 747.472 588.023 747.456C585.457 747.266 582.833 747.379 580.259 747.384C575.275 746.25 549.924 747.082 542.944 747.081C502.201 747.076 461.293 748.421 420.575 747.487C417.865 747.424 413.364 747.324 411.41 745.286C409.338 739.534 409.727 705.886 410.29 698.127C410.341 696.773 410.198 695.398 410.121 694.045C409.761 685.073 410.036 676.003 410.039 667.019C409.914 666.835 409.795 666.646 409.665 666.466C407.85 663.938 402.313 661.574 399.617 659.674C387.451 651.097 382.16 634.374 383.839 620.042C385.302 607.56 391.017 594.525 394.939 582.585C408.153 542.35 421.033 500.903 455.855 473.609C474.397 459.076 496.735 451.449 520.086 449.952L520.105 439.707Z"/>
	<path fill="#FEFEFE" d="M585.575 516.166C585.972 516.194 586.586 516.221 586.957 516.322C587.946 516.59 588.174 516.776 588.647 517.659C591.607 523.182 602.496 551.71 603.909 557.52C604.209 558.756 604.087 559.523 603.708 560.718C603.006 560.537 602.478 560.293 601.829 559.979C600.189 557.612 586.87 523.935 585.7 519.536C585.399 518.404 585.42 517.315 585.575 516.166Z"/>
	<path fill="#FEFEFE" d="M480.789 516.102C481.866 516.348 482.351 516.474 483.105 517.299C483.327 520.821 469.37 555.862 467.113 559.799L464.146 558.893C464.473 554.591 478.123 522.411 480.789 516.102Z"/>
	<path fill="#FEFEFE" d="M530.969 390.615C535.976 390.169 540.127 391.008 544.27 394C548.815 397.281 551.995 402.391 552.678 407.976C553.654 415.959 549.954 419.62 545.549 425.366C544.563 434.258 545.215 443.705 545.354 452.638C554.173 453.552 562.735 454.941 571.382 456.897C570.653 466.099 568.356 473.652 562.084 480.671C554.85 488.767 546.09 492.515 535.397 493.194C526.195 493.139 517.588 490.457 510.503 484.445C502.23 477.425 498.251 466.883 497.297 456.297C505.677 454.147 514.372 453.6 522.969 453.005Q523.061 440.598 522.902 428.191C517.916 424.708 513.994 421.132 512.602 414.901C511.461 409.795 512.699 404.421 515.579 400.099C519.232 394.619 524.69 391.892 530.969 390.615Z"/>
	<path fill="#FEFEFE" d="M413.477 724.828L657.061 725.119Q657.183 734.803 657.174 744.488L504.181 744.449L447.037 744.571C435.913 744.576 424.731 744.797 413.619 744.34C413.209 737.891 413.471 731.295 413.477 724.828Z"/>
	<path fill="#FEFEFE" d="M482.87 562.75C541.022 561.975 599.339 562.607 657.505 562.677C657.472 615.832 658.054 669.055 657.215 722.201L586.875 722.162L413.377 722.08C412.83 710.149 413.216 698.073 413.319 686.132Q413.531 661.297 413.448 636.462L413.407 590.377C413.428 581.354 412.994 571.962 414.068 562.998L482.87 562.75Z"/>
	<path fill="#5576B9" d="M531.212 624.618C535.582 624.339 539.251 624.414 543.347 626.282C548.232 628.508 552.207 632.605 554.04 637.675Q554.211 638.139 554.358 638.611Q554.505 639.083 554.627 639.562Q554.75 640.041 554.848 640.525Q554.945 641.01 555.018 641.499Q555.091 641.988 555.139 642.48Q555.187 642.972 555.209 643.466Q555.232 643.96 555.229 644.454Q555.226 644.948 555.198 645.442Q555.17 645.935 555.117 646.427Q555.063 646.918 554.985 647.406Q554.907 647.895 554.803 648.378Q554.7 648.861 554.572 649.339Q554.444 649.816 554.292 650.287Q554.14 650.757 553.964 651.219Q553.788 651.681 553.588 652.133Q553.389 652.586 553.166 653.027C550.218 658.81 545.278 661.815 539.353 663.848C534.799 664.384 530.916 664.339 526.676 662.292Q526.233 662.074 525.802 661.834Q525.371 661.594 524.952 661.332Q524.533 661.071 524.128 660.789Q523.723 660.507 523.332 660.205Q522.942 659.903 522.567 659.582Q522.192 659.261 521.833 658.921Q521.475 658.582 521.134 658.225Q520.793 657.868 520.47 657.494Q520.148 657.121 519.844 656.732Q519.54 656.342 519.257 655.938Q518.973 655.534 518.71 655.117Q518.447 654.699 518.205 654.269Q517.963 653.839 517.743 653.397Q517.523 652.955 517.325 652.502Q517.127 652.05 516.952 651.589Q516.778 651.127 516.626 650.657Q516.469 650.184 516.335 649.704Q516.202 649.224 516.092 648.738Q515.982 648.252 515.897 647.761Q515.812 647.27 515.752 646.775Q515.691 646.28 515.655 645.783Q515.619 645.286 515.608 644.788Q515.597 644.29 515.611 643.791Q515.625 643.293 515.664 642.796Q515.702 642.299 515.766 641.805Q515.829 641.311 515.917 640.82Q516.005 640.33 516.117 639.844Q516.229 639.359 516.366 638.879Q516.502 638.4 516.662 637.928Q516.822 637.456 517.006 636.993Q517.189 636.529 517.395 636.076Q517.601 635.622 517.83 635.179C520.744 629.496 525.363 626.602 531.212 624.618Z"/>
	<path fill="#0C1114" d="M157.125 634.177C147.862 632.907 140.668 629.341 134.984 621.788C127.36 611.659 123.514 596.089 123.45 583.567C123.424 578.401 124.427 572.877 123.417 567.79C122.686 564.111 120.542 560.382 119.291 556.802C115.205 545.106 113.028 532.057 114.692 519.689Q115.232 515.847 116.347 512.131Q117.463 508.416 119.129 504.912C121.885 499.103 130.148 490.219 128.863 483.7C127.998 479.312 123.319 474.303 120.964 470.484C108.689 450.584 100.063 428.638 103.553 404.877C106.677 383.612 117.429 364.84 134.786 352.028Q136.27 350.952 137.804 349.95Q139.338 348.947 140.919 348.02Q142.5 347.093 144.124 346.244Q145.748 345.395 147.412 344.625Q149.075 343.856 150.774 343.168Q152.473 342.481 154.203 341.876Q155.933 341.272 157.69 340.752Q159.448 340.232 161.229 339.798Q163.009 339.364 164.809 339.018Q166.608 338.671 168.423 338.411Q170.237 338.152 172.062 337.981Q173.886 337.81 175.717 337.728Q177.548 337.646 179.381 337.653Q181.213 337.66 183.044 337.756Q184.874 337.851 186.697 338.036Q188.521 338.22 190.333 338.493C208.954 341.389 226.741 353.031 237.751 368.154Q238.304 368.905 238.839 369.671Q239.373 370.436 239.888 371.214Q240.403 371.992 240.898 372.783Q241.394 373.574 241.869 374.377Q242.344 375.18 242.799 375.995Q243.254 376.81 243.689 377.636Q244.123 378.462 244.537 379.298Q244.95 380.135 245.342 380.982Q245.735 381.828 246.106 382.685Q246.477 383.541 246.826 384.406Q247.176 385.271 247.503 386.145Q247.831 387.019 248.136 387.901Q248.442 388.783 248.725 389.672Q249.009 390.561 249.269 391.457Q249.53 392.353 249.769 393.255Q250.007 394.158 250.223 395.066Q250.438 395.974 250.631 396.887Q250.824 397.8 250.993 398.717Q251.163 399.635 251.31 400.557Q251.457 401.478 251.58 402.403Q251.704 403.328 251.804 404.256Q251.904 405.184 251.981 406.114Q252.058 407.044 252.111 407.976Q252.165 408.907 252.195 409.84Q252.225 410.773 252.232 411.706Q252.239 412.639 252.222 413.572Q252.205 414.505 252.165 415.438Q252.125 416.37 252.062 417.301Q251.998 418.232 251.911 419.161Q251.825 420.09 251.714 421.017Q251.604 421.944 251.471 422.867Q251.338 423.791 251.181 424.711C247.948 444.745 236.478 461.428 220.721 473.817C217.692 476.199 214.229 477.729 211.214 479.998C210.983 480.171 210.757 480.35 210.528 480.526L210.634 480.03L210.877 481.389L213.398 482.162C215.187 483.949 216.434 485.927 217.351 488.291C222.721 502.127 217.701 515.646 212.294 528.463C218.147 526.737 224.695 524.993 230.837 525.092C239.867 525.238 244.849 530.587 250.734 536.53C250.913 538.095 251.306 538.835 252.103 540.145C256.789 531.687 262.308 523.659 269.005 516.657C286.374 498.499 311.872 487.186 336.778 484.965C349.934 483.792 363.663 484.648 376.868 484.748C397.719 484.905 418.661 485.275 439.505 484.778C430.498 493.487 423.283 503.756 417.365 514.775C404.812 538.147 396.987 564.876 388.91 590.086C385.586 600.463 380.525 612.237 380.343 623.142Q380.33 624.33 380.374 625.517Q380.419 626.705 380.521 627.888Q380.624 629.072 380.784 630.249Q380.944 631.426 381.162 632.594Q381.38 633.762 381.654 634.918Q381.929 636.074 382.259 637.215Q382.59 638.356 382.976 639.48Q383.362 640.604 383.802 641.707Q384.243 642.811 384.736 643.891Q385.23 644.972 385.776 646.027Q386.322 647.082 386.919 648.109Q387.516 649.137 388.163 650.133Q388.809 651.13 389.503 652.094Q390.198 653.058 390.938 653.987Q391.679 654.916 392.464 655.808Q393.249 656.7 394.077 657.552C398.071 661.621 404.238 666.304 410.039 667.019C410.036 676.003 409.761 685.073 410.121 694.045C410.198 695.398 410.341 696.773 410.29 698.127C409.727 705.886 409.338 739.534 411.41 745.286C413.364 747.324 417.865 747.424 420.575 747.487C461.293 748.421 502.201 747.076 542.944 747.081C549.924 747.082 575.275 746.25 580.259 747.384C582.833 747.379 585.457 747.266 588.023 747.456C598.321 747.472 653.693 748.694 659.142 746.507C661.065 741.331 660.002 704.524 660.002 696.271L660.029 693.134C660.455 687.278 661.479 673.126 660.155 667.675C666.056 666.756 673.379 662.207 677.745 658.221C685.464 651.175 690.161 640.539 690.553 630.13C691.321 609.727 664.777 538.584 654.132 518.932C647.74 507.132 639.313 495.409 630.091 485.613C628.938 484.932 628.397 484.895 627.882 483.591C629.127 482.702 630.19 482.645 631.713 482.571C644.66 481.937 658.039 482.711 671.04 482.753C689.043 482.812 707.177 482.327 725.163 482.891Q732.532 483.092 739.803 484.304Q741.151 484.535 742.492 484.799Q743.834 485.063 745.168 485.36Q746.503 485.657 747.83 485.986Q749.157 486.316 750.475 486.678Q751.794 487.041 753.103 487.435Q754.412 487.83 755.711 488.256Q757.01 488.683 758.298 489.141Q759.586 489.6 760.863 490.09Q762.139 490.58 763.403 491.101Q764.667 491.623 765.918 492.175Q767.169 492.727 768.406 493.31Q769.642 493.893 770.865 494.506Q772.087 495.119 773.293 495.762Q774.5 496.405 775.69 497.077Q776.881 497.75 778.055 498.451Q779.228 499.153 780.384 499.883Q781.54 500.613 782.678 501.372Q783.815 502.13 784.934 502.917Q786.053 503.703 787.151 504.516Q788.25 505.33 789.329 506.17Q790.408 507.01 791.465 507.877Q792.523 508.743 793.559 509.636Q794.595 510.528 795.608 511.446Q796.622 512.363 797.613 513.305Q798.604 514.248 799.571 515.214Q800.538 516.18 801.482 517.17Q802.425 518.16 803.344 519.173Q804.262 520.185 805.156 521.22Q806.049 522.255 806.917 523.312Q807.784 524.369 808.626 525.446Q809.467 526.524 810.282 527.622Q811.097 528.72 811.884 529.838Q813.571 532.205 815.125 534.662Q816.679 537.12 818.095 539.659Q819.511 542.198 820.785 544.811Q822.059 547.425 823.186 550.104Q824.314 552.784 825.291 555.522Q826.269 558.26 827.094 561.047Q827.919 563.835 828.589 566.664Q829.259 569.493 829.772 572.355C832.366 586.222 831.474 600.875 831.48 614.94C831.49 638.581 831.109 662.311 831.629 685.944L860.283 685.948Q855.268 659.696 851.083 633.298C849.734 624.982 847.646 616.193 847.278 607.814Q860.625 607.787 873.972 607.942C881.548 590.772 882.61 581.11 875.627 563.277C872.873 556.243 869.322 549.548 866.492 542.55C859.807 526.013 860.272 510.773 867.297 494.395C868.142 492.424 869.166 490.88 870.602 489.297L871.239 489.495C870.174 492.876 868.167 495.775 866.679 498.966C865.701 501.062 863.751 508.53 863.396 510.755C858.532 541.299 886.081 563.501 880.931 591.929C879.907 597.583 877.493 602.785 875.121 607.975C882.341 607.996 889.591 608.153 896.807 607.956L900.1 607.979C910.99 608.086 922.022 607.813 932.888 608.306C930.096 621.443 927.534 634.647 924.634 647.758C921.738 660.855 918.467 673.898 915.843 687.051C934.034 692.009 948.069 701.712 957.544 718.259Q959.209 721.187 960.586 724.26Q961.963 727.334 963.038 730.526Q964.114 733.718 964.878 736.998Q965.642 740.278 966.088 743.616C966.986 750.58 966.648 757.825 966.681 764.841L966.807 798.791Q966.926 825.02 966.773 851.248C966.764 859.981 967.258 868.833 966.778 877.548C966.482 882.907 965.697 888.367 964.304 893.556C959.802 910.319 946.231 926.214 931.259 934.584Q928.655 936.032 925.93 937.239Q923.205 938.446 920.382 939.402Q917.56 940.358 914.662 941.055Q911.765 941.751 908.816 942.183C896.049 944.154 882.531 943.34 869.624 943.298C848.32 943.229 826.978 942.954 805.677 943.231C798.823 924.438 792.443 905.443 785.727 886.594L285.228 886.561C278.686 905.222 272.701 924.347 265.587 942.781C236.619 943.556 207.474 943.118 178.488 943.009C159.111 942.936 139.576 943.44 120.227 942.804C113.826 936.459 108.87 927.813 103.745 920.384C83.3254 890.79 67.8787 865.491 67.7776 827.975C67.7178 805.774 74.3997 785.358 83.952 765.609C80.2725 764.515 77.7815 763.334 75.9761 759.768C74.5798 757.011 74.5067 753.785 75.5879 750.911C76.6994 747.957 78.6593 746.149 81.2833 744.537L127.229 744.571C128.452 729.739 125.831 713.015 121.331 698.776C119.717 692.336 110.246 667.894 110.176 664.853L110.459 664.393C112.69 665.298 113.454 668.002 114.336 670.09Q120.264 684.144 124.142 698.897C126.994 709.863 128.938 720.612 130.004 731.906C133.981 720.394 139.48 711.545 148.235 703.038C150.033 693.137 150.967 683.027 152.158 673.038Q154.499 653.589 157.125 634.177Z"/>
	<path fill="#FEFEFE" d="M83.7598 747.196C98.0184 746.836 112.358 747.157 126.622 747.208L126.573 762.633L121.125 762.636C114.493 762.618 85.8236 763.654 81.3684 761.681C79.5809 760.889 78.0392 759.464 77.3704 757.596C76.6832 755.676 77.016 753.677 77.9378 751.899C79.2367 749.394 81.0758 747.954 83.7598 747.196Z"/>
	<path fill="#99C4BB" d="M255.427 553.197C256.801 569.98 254.248 577.44 243.694 590.533C243.586 590.668 243.461 590.788 243.344 590.916C242.205 592.102 241.018 593.249 240.039 594.573C235.412 598.026 230.953 601.164 225.649 603.526C223.558 604.457 221.08 604.85 219.136 605.986C217.565 605.891 216.862 605.263 215.688 604.329C219.602 594.172 220.816 582.254 222.8 571.558C233.37 564.972 244.804 559.753 255.427 553.197Z"/>
	<path fill="#FEFEFE" d="M159.805 633.285C167.074 630.7 171.305 627.061 176.81 621.703C177.04 631.572 177.005 642.885 183.614 650.872Q177.081 669.26 173.229 688.389C164.791 691.247 158.378 695.023 151.25 700.281C154.569 678.041 157.051 655.603 159.805 633.285Z"/>
	<path fill="#FEFEFE" d="M858.251 660.003C878.576 659.693 898.914 660.026 919.242 659.917C916.83 668.668 915.085 677.721 913.115 686.585C896.737 685.052 879.6 685.986 863.13 685.977C861.062 677.474 859.855 668.617 858.251 660.003Z"/>
	<path fill="#FEFEFE" d="M849.79 610.495L900.121 610.532C909.99 610.552 920.005 610.236 929.856 610.81Q926.762 625.258 923.484 639.665C921.931 646.355 920.297 653.13 919.242 659.917C898.914 660.026 878.576 659.693 858.251 660.003L854.757 638.951C853.03 629.503 851.074 620.011 849.79 610.495Z"/>
	<path fill="#99C4BB" d="M854.757 638.951C857.882 640.204 914.582 639.426 923.484 639.665C921.931 646.355 920.297 653.13 919.242 659.917C898.914 660.026 878.576 659.693 858.251 660.003L854.757 638.951Z"/>
	<path fill="#FEFEFE" d="M240.039 594.573C239.272 625.21 239.991 655.922 239.778 686.571C218.625 686.549 197.033 685.549 175.983 687.692C178.817 675.572 181.778 663.195 186.127 651.515C192.692 633.674 206.732 620.741 215.688 604.329C216.862 605.263 217.565 605.891 219.136 605.986C221.08 604.85 223.558 604.457 225.649 603.526C230.953 601.164 235.412 598.026 240.039 594.573Z"/>
	<path fill="#99C4BB" d="M215.688 604.329C216.862 605.263 217.565 605.891 219.136 605.986C221.348 613.236 220.82 622.406 217.332 629.162C211.156 641.123 198.106 647.121 186.127 651.515C192.692 633.674 206.732 620.741 215.688 604.329Z"/>
	<path fill="#FEFEFE" d="M87.3822 765.217Q106.994 764.937 126.603 765.383L126.685 841.495C126.686 854.786 125.783 868.867 127.346 882.041Q127.971 887.209 129.311 892.24Q130.651 897.27 132.68 902.064C141.025 921.796 156.657 932.587 175.864 940.341L159.308 940.239L121.095 940.051C104.371 917.931 83.2337 889.283 75.6989 862.606C66.1528 828.809 70.3365 795.901 87.3822 765.217Z"/>
	<path fill="#99C4BB" d="M157.125 634.177C147.862 632.907 140.668 629.341 134.984 621.788C127.36 611.659 123.514 596.089 123.45 583.567C123.424 578.401 124.427 572.877 123.417 567.79C122.686 564.111 120.542 560.382 119.291 556.802C115.205 545.106 113.028 532.057 114.692 519.689Q115.232 515.847 116.347 512.131Q117.463 508.416 119.129 504.912C121.885 499.103 130.148 490.219 128.863 483.7C127.998 479.312 123.319 474.303 120.964 470.484C108.689 450.584 100.063 428.638 103.553 404.877C106.677 383.612 117.429 364.84 134.786 352.028Q136.27 350.952 137.804 349.95Q139.338 348.947 140.919 348.02Q142.5 347.093 144.124 346.244Q145.748 345.395 147.412 344.625Q149.075 343.856 150.774 343.168Q152.473 342.481 154.203 341.876Q155.933 341.272 157.69 340.752Q159.448 340.232 161.229 339.798Q163.009 339.364 164.809 339.018Q166.608 338.671 168.423 338.411Q170.237 338.152 172.062 337.981Q173.886 337.81 175.717 337.728Q177.548 337.646 179.381 337.653Q181.213 337.66 183.044 337.756Q184.874 337.851 186.697 338.036Q188.521 338.22 190.333 338.493C208.954 341.389 226.741 353.031 237.751 368.154Q238.304 368.905 238.839 369.671Q239.373 370.436 239.888 371.214Q240.403 371.992 240.898 372.783Q241.394 373.574 241.869 374.377Q242.344 375.18 242.799 375.995Q243.254 376.81 243.689 377.636Q244.123 378.462 244.537 379.298Q244.95 380.135 245.342 380.982Q245.735 381.828 246.106 382.685Q246.477 383.541 246.826 384.406Q247.176 385.271 247.503 386.145Q247.831 387.019 248.136 387.901Q248.442 388.783 248.725 389.672Q249.009 390.561 249.269 391.457Q249.53 392.353 249.769 393.255Q250.007 394.158 250.223 395.066Q250.438 395.974 250.631 396.887Q250.824 397.8 250.993 398.717Q251.163 399.635 251.31 400.557Q251.457 401.478 251.58 402.403Q251.704 403.328 251.804 404.256Q251.904 405.184 251.981 406.114Q252.058 407.044 252.111 407.976Q252.165 408.907 252.195 409.84Q252.225 410.773 252.232 411.706Q252.239 412.639 252.222 413.572Q252.205 414.505 252.165 415.438Q252.125 416.37 252.062 417.301Q251.998 418.232 251.911 419.161Q251.825 420.09 251.714 421.017Q251.604 421.944 251.471 422.867Q251.338 423.791 251.181 424.711C247.948 444.745 236.478 461.428 220.721 473.817C217.692 476.199 214.229 477.729 211.214 479.998C210.983 480.171 210.757 480.35 210.528 480.526L210.634 480.03L210.877 481.389L213.398 482.162C215.187 483.949 216.434 485.927 217.351 488.291C222.721 502.127 217.701 515.646 212.294 528.463C218.147 526.737 224.695 524.993 230.837 525.092C239.867 525.238 244.849 530.587 250.734 536.53C250.913 538.095 251.306 538.835 252.103 540.145C253.934 543.352 253.51 547.903 255.469 550.806C248.111 553.111 232.219 563.686 223.863 567.82C225.375 560.697 229.731 549.036 229.262 542.286L229.01 541.947C223.388 546.324 216.742 591.009 214.448 599.781L213.943 599.258C207.392 592.407 202.092 583.108 197.878 574.659C195.739 570.37 193.507 565.923 191.79 561.446C190.694 558.588 190.088 555.5 188.887 552.701C188.357 551.466 187.894 550.502 186.875 549.587L185.888 549.64C185.296 550.545 185.081 550.714 185.291 551.842C185.84 554.777 187.626 558.128 188.753 560.915C195.107 576.633 203.173 589.824 213.055 603.542C203.009 619.179 190.07 633.208 183.614 650.872C177.005 642.885 177.04 631.572 176.81 621.703C171.305 627.061 167.074 630.7 159.805 633.285C164.599 608.043 168.509 581.11 167.567 555.339C167.298 547.985 166.654 540.573 165.36 533.327C164.483 528.418 162.832 523.214 162.665 518.237C162.597 516.189 163.343 514.163 163.934 512.228C173.674 505.079 184.362 498.89 194.778 492.763C199.054 490.248 203.747 488.004 207.778 485.154C208.872 484.38 209.061 484.191 209.439 482.96L208.885 481.793C206.397 481.865 169.205 504.992 164.17 508.615C172.231 465.146 181.456 420.945 204.703 382.736C205.792 380.946 209.028 376.624 208.287 375.021L207.549 374.659C204.663 376.519 202.337 381.041 200.565 383.921C185.819 407.892 178.913 434.367 171.237 461.123Q155.103 441.545 138.737 422.16C134.453 416.988 122.895 400.92 118.378 398.09L117.835 398.395L118.447 398.848L117.649 398.618C117.414 399.934 117.444 400.545 118.247 401.673C120.749 405.185 123.948 408.426 126.693 411.767Q135.687 422.886 144.868 433.85C153.108 443.699 161.843 455.375 170.668 464.534Q166.632 481.256 163.264 498.126C162.129 503.75 160.604 509.667 160.363 515.403C156.807 509.289 152.571 500.415 146.882 496.18L145.953 496.213C145.545 497.208 145.474 497.384 145.931 498.437C147.093 501.115 149.864 503.605 151.618 505.973C154.452 509.802 156.696 514.119 158.416 518.552C168.771 545.257 165.095 581.092 161.077 608.94C159.866 617.336 157.952 625.746 157.125 634.177Z"/>
	<path fill="#FEFEFE" d="M660.029 693.134C675.404 688.239 689.759 688.798 704.231 696.307C718.46 703.69 728.465 715.295 733.307 730.62C736.074 739.376 736.571 748.645 735.318 757.705Q782.163 757.373 829.009 757.51C839.921 757.508 855.791 755.865 866.092 757.611C872.274 758.658 878.35 761.409 882.87 765.799C893.815 776.433 893.594 790.377 893.556 804.524L893.479 833.454C893.474 850.189 894.911 867.156 881.977 880.024C874.882 887.082 864.123 891.268 854.183 891.534L852.145 887.092C861.884 886.717 870.927 884.539 878.247 877.72C885.83 870.654 889.171 860.964 889.436 850.779C889.734 839.294 889.501 827.745 889.525 816.252C889.547 806.124 890.679 794.563 888.545 784.702C887.401 779.42 885.098 774.621 881.294 770.72C877.104 766.423 871.078 762.919 865.124 761.888C859.663 760.942 853.761 761.33 848.23 761.353L822.601 761.433L734.804 761.181C733.804 763.992 732.776 766.785 731.531 769.499C720.345 793.896 703.855 797.877 680.549 806.119Q662.661 812.458 644.89 819.12C648.578 822.12 651.877 825.475 654.223 829.64Q654.617 830.353 654.977 831.083Q655.336 831.814 655.659 832.562Q655.982 833.31 656.268 834.072Q656.554 834.835 656.802 835.61Q657.051 836.386 657.261 837.173Q657.471 837.96 657.643 838.756Q657.814 839.552 657.947 840.356Q658.079 841.159 658.172 841.968Q658.265 842.777 658.318 843.59Q658.371 844.403 658.385 845.217Q658.398 846.031 658.372 846.845Q658.346 847.659 658.279 848.471Q658.213 849.283 658.108 850.09Q658.002 850.898 657.857 851.699Q657.712 852.501 657.528 853.294Q657.344 854.088 657.121 854.871C654.384 864.396 647.552 872.639 638.884 877.389C631.971 881.177 623.671 882.862 615.822 882.473C601.268 881.754 581.818 874.129 567.521 869.604C556.028 865.966 544.489 862.583 532.924 859.189C523.008 863.52 512.14 866.318 501.827 869.63C487.286 874.299 472.81 880.328 457.517 882.075Q455.152 882.363 452.77 882.419Q450.388 882.474 448.011 882.298Q445.635 882.121 443.288 881.714Q440.94 881.307 438.643 880.673C429.03 878.035 420.938 872.337 416.002 863.571C411.829 856.16 410.169 847.498 412.527 839.204C415.488 828.791 422.285 822.506 431.519 817.438C422.485 814.886 413.645 811.759 404.711 808.889C394.837 805.716 384.772 802.762 375.147 798.892C357.061 791.619 346.395 779.52 338.812 761.836L261.027 761.945C250.546 761.952 233.284 760.712 223.555 762.567Q222.491 762.778 221.445 763.066Q220.399 763.353 219.377 763.716Q218.354 764.078 217.36 764.513Q216.367 764.948 215.407 765.454Q214.448 765.96 213.527 766.534Q212.606 767.108 211.73 767.747Q210.853 768.385 210.025 769.086Q209.197 769.786 208.421 770.545C201.574 777.13 198.433 785.48 198.294 794.882C198.128 806.085 198.538 817.315 198.511 828.524C198.487 838.408 197.309 849.653 199.183 859.317C200.167 864.392 202.582 869.663 205.763 873.739C210.87 880.285 216.882 880.567 221.21 885.044L220.682 887.985C214.984 885.701 209.734 883.129 205.359 878.717C191.987 865.233 194.508 847.126 194.525 829.796L194.42 798.475C194.453 787.137 196.564 777.04 204.908 768.842C209.546 764.285 214.731 761.129 221.081 759.708C232.663 757.117 251.473 758.485 264.021 758.472L337.936 758.413C336.53 750.142 335.883 742.286 337.809 734.036C341.029 720.245 350.951 707.617 362.913 700.244C377.615 691.182 393.589 690.173 410.121 694.045C410.198 695.398 410.341 696.773 410.29 698.127C409.727 705.886 409.338 739.534 411.41 745.286C413.364 747.324 417.865 747.424 420.575 747.487C461.293 748.421 502.201 747.076 542.944 747.081C549.924 747.082 575.275 746.25 580.259 747.384C582.833 747.379 585.457 747.266 588.023 747.456C598.321 747.472 653.693 748.694 659.142 746.507C661.065 741.331 660.002 704.524 660.002 696.271L660.029 693.134Z"/>
	<path fill="#F16F6E" d="M538.476 857.407L610.09 831.554C604.346 845.562 599.75 860.124 593.705 873.97C575.287 868.287 557.308 861.718 538.476 857.407Z"/>
	<path fill="#0C1114" d="M640.219 820.709C647.494 826.476 652.94 833.034 654.212 842.521C655.289 850.548 652.514 858.674 647.56 864.955Q647.003 865.65 646.413 866.316Q645.822 866.982 645.199 867.619Q644.577 868.255 643.923 868.86Q643.27 869.465 642.588 870.036Q641.905 870.608 641.195 871.146Q640.485 871.683 639.75 872.185Q639.014 872.686 638.255 873.151Q637.495 873.616 636.714 874.042Q635.932 874.469 635.131 874.856Q634.329 875.244 633.509 875.591Q632.689 875.938 631.853 876.245Q631.018 876.551 630.167 876.816Q629.317 877.081 628.455 877.303Q627.593 877.526 626.721 877.705Q625.849 877.885 624.969 878.021Q624.089 878.157 623.204 878.25C613.163 879.333 603.242 876.835 593.705 873.97C599.75 860.124 604.346 845.562 610.09 831.554C619.807 827.475 630.161 823.855 640.219 820.709Z"/>
	<path fill="#0C1114" d="M474.878 874.319C466.841 876.357 458.497 878.586 450.147 878.37C440.476 878.121 430.423 875.103 423.72 867.794C418.347 861.936 415.047 853.995 415.411 845.989C415.774 838.013 420.121 830.264 426.042 825.032C434.299 817.736 442.86 817.548 453.163 818.218C454.496 818.635 454.777 818.549 455.459 819.829C458.395 825.346 460.214 832.441 462.324 838.358C466.578 850.29 471.078 862.234 474.878 874.319Z"/>
	<path fill="#F16F6E" d="M436.064 814.39Q434.602 814.1 433.157 813.737C418.366 810.138 376.006 796.695 364.399 789.194C357.537 784.759 351.32 778.364 347.105 771.364Q346.494 770.327 345.934 769.263Q345.373 768.198 344.865 767.107Q344.357 766.016 343.903 764.902Q343.448 763.788 343.048 762.653Q342.648 761.518 342.303 760.365Q341.958 759.212 341.669 758.044Q341.381 756.876 341.149 755.695Q340.917 754.515 340.743 753.324Q340.569 752.133 340.452 750.936Q340.335 749.738 340.277 748.536Q340.219 747.334 340.218 746.131Q340.218 744.928 340.276 743.726Q340.334 742.524 340.45 741.326Q340.566 740.128 340.74 738.938Q340.914 737.747 341.146 736.566Q341.377 735.385 341.665 734.217Q341.979 733.005 342.353 731.81Q342.726 730.615 343.159 729.44Q343.591 728.265 344.081 727.113Q344.571 725.961 345.118 724.834Q345.664 723.708 346.266 722.61Q346.868 721.512 347.524 720.445Q348.179 719.378 348.887 718.345Q349.594 717.312 350.352 716.316Q351.11 715.319 351.916 714.361Q352.723 713.403 353.575 712.487Q354.428 711.57 355.325 710.697Q356.223 709.823 357.162 708.996Q358.101 708.168 359.081 707.388Q360.06 706.607 361.077 705.877Q362.093 705.146 363.145 704.467Q364.197 703.787 365.281 703.161C379.489 694.916 394.644 693.896 410.29 698.127C409.727 705.886 409.338 739.534 411.41 745.286C413.364 747.324 417.865 747.424 420.575 747.487C461.293 748.421 502.201 747.076 542.944 747.081C549.924 747.082 575.275 746.25 580.259 747.384C574.624 748.916 569.065 751.593 563.632 753.764Q551.949 758.363 540.188 762.762C530.859 758.904 521.414 755.697 511.835 752.534C506.562 750.792 501.174 748.732 495.688 747.773C492.788 747.266 489.693 747.479 486.76 747.55C501.53 754.58 519.219 758.224 534.575 764.529C505.019 777.779 473.979 788.115 444.012 800.455C444.672 802.08 445.539 803.741 445.089 805.531C444.06 809.618 439.397 812.253 436.064 814.39Z"/>
	<path fill="#F16F6E" d="M660.002 696.271C677.557 692.581 691.408 691.879 707.138 702.121Q708.275 702.857 709.375 703.648Q710.474 704.439 711.534 705.283Q712.593 706.127 713.609 707.023Q714.626 707.918 715.597 708.862Q716.568 709.807 717.492 710.798Q718.415 711.788 719.289 712.824Q720.162 713.859 720.984 714.936Q721.806 716.013 722.573 717.129Q723.341 718.245 724.052 719.398Q724.764 720.55 725.418 721.737Q726.072 722.923 726.667 724.14Q727.262 725.357 727.796 726.602Q728.33 727.846 728.803 729.116Q729.275 730.385 729.684 731.677Q730.093 732.968 730.439 734.278Q730.784 735.588 731.064 736.913Q731.325 738.161 731.524 739.421Q731.724 740.681 731.861 741.949Q731.998 743.217 732.073 744.49Q732.148 745.763 732.16 747.039Q732.171 748.314 732.12 749.588Q732.07 750.863 731.956 752.133Q731.843 753.403 731.667 754.667Q731.491 755.93 731.253 757.183Q731.015 758.436 730.716 759.676Q730.417 760.916 730.057 762.139Q729.697 763.363 729.278 764.567Q728.858 765.772 728.38 766.954Q727.902 768.136 727.366 769.294Q726.83 770.451 726.238 771.58Q725.645 772.71 724.998 773.809Q724.351 774.908 723.651 775.974C719.13 782.866 713.216 788.486 705.917 792.311C696.692 797.145 686.248 800.209 676.444 803.689Q656.633 810.714 636.932 818.045C601.531 831.066 565.979 843.94 530.33 856.264C512.941 862.276 492.506 870.111 474.878 874.319C471.078 862.234 466.578 850.29 462.324 838.358C460.214 832.441 458.395 825.346 455.459 819.829C454.777 818.549 454.496 818.635 453.163 818.218C453.67 818.123 454.212 817.892 454.703 817.727C454.714 816.422 454.313 815.735 453.742 814.598C451.446 813.097 446.044 813.903 443.225 813.929L450.309 807.583L448.118 802.925C454.553 800.576 460.799 797.686 467.178 795.179Q498.555 783.091 529.777 770.61C541.63 765.974 580.861 752.989 588.023 747.456C598.321 747.472 653.693 748.694 659.142 746.507C661.065 741.331 660.002 704.524 660.002 696.271Z"/>
	<path fill="#5576B9" d="M252.103 540.145C256.789 531.687 262.308 523.659 269.005 516.657C286.374 498.499 311.872 487.186 336.778 484.965C349.934 483.792 363.663 484.648 376.868 484.748C397.719 484.905 418.661 485.275 439.505 484.778C430.498 493.487 423.283 503.756 417.365 514.775C404.812 538.147 396.987 564.876 388.91 590.086C385.586 600.463 380.525 612.237 380.343 623.142Q380.33 624.33 380.374 625.517Q380.419 626.705 380.521 627.888Q380.624 629.072 380.784 630.249Q380.944 631.426 381.162 632.594Q381.38 633.762 381.654 634.918Q381.929 636.074 382.259 637.215Q382.59 638.356 382.976 639.48Q383.362 640.604 383.802 641.707Q384.243 642.811 384.736 643.891Q385.23 644.972 385.776 646.027Q386.322 647.082 386.919 648.109Q387.516 649.137 388.163 650.133Q388.809 651.13 389.503 652.094Q390.198 653.058 390.938 653.987Q391.679 654.916 392.464 655.808Q393.249 656.7 394.077 657.552C398.071 661.621 404.238 666.304 410.039 667.019C410.036 676.003 409.761 685.073 410.121 694.045C393.589 690.173 377.615 691.182 362.913 700.244C350.951 707.617 341.029 720.245 337.809 734.036C335.883 742.286 336.53 750.142 337.936 758.413L264.021 758.472C251.473 758.485 232.663 757.117 221.081 759.708C214.731 761.129 209.546 764.285 204.908 768.842C196.564 777.04 194.453 787.137 194.42 798.475L194.525 829.796C194.508 847.126 191.987 865.233 205.359 878.717C209.734 883.129 214.984 885.701 220.682 887.985C218.371 896.714 214.934 905.348 211.962 913.874C208.931 922.573 206.229 931.557 202.592 940.014C198.078 940.017 193.495 940.159 188.995 939.842C172.129 938.653 155.948 929.785 145.062 916.979Q143.759 915.433 142.553 913.81Q141.347 912.187 140.244 910.493Q139.141 908.799 138.144 907.04Q137.147 905.281 136.26 903.464Q135.374 901.647 134.601 899.778Q133.828 897.91 133.172 895.997Q132.516 894.085 131.979 892.136Q131.442 890.187 131.026 888.208C128.573 876.302 129.42 863.545 129.442 851.438L129.532 806.38L129.605 769.593C129.6 762.341 129.224 754.903 129.872 747.685C131.641 727.973 140.169 711.669 156.229 699.871C162.046 695.597 168.479 692.094 175.602 690.616C188.307 687.982 208.237 689.345 221.695 689.404L282.363 689.534C285.743 689.536 297.573 690.46 299.698 688.7L299.694 687.428C296.849 685.464 249.758 686.543 242.527 686.548L242.598 627.946C242.634 615.672 242.288 603.148 243.344 590.916C243.461 590.788 243.586 590.668 243.694 590.533C254.248 577.44 256.801 569.98 255.427 553.197C255.601 552.417 255.494 551.602 255.469 550.806C253.51 547.903 253.934 543.352 252.103 540.145Z"/>
	<path fill="#5576B9" d="M630.091 485.613C647.714 485.294 665.371 485.499 682.999 485.501C704.848 485.503 728.371 483.657 749.624 489.302Q752.833 490.188 755.981 491.27Q759.129 492.352 762.205 493.627Q765.28 494.902 768.27 496.364Q771.261 497.826 774.156 499.471Q777.05 501.115 779.838 502.935Q782.625 504.755 785.295 506.743Q787.964 508.732 790.506 510.882Q793.048 513.031 795.452 515.334C815.996 535.024 828.031 560.171 828.523 588.793C829.08 621.127 828.767 653.575 828.65 685.916L791.414 685.942C785.771 685.942 779.76 685.431 774.161 685.957C772.947 686.071 771.408 686.293 770.444 687.1C770.325 687.199 770.236 687.328 770.132 687.443C770.692 688.258 771.112 688.222 772.053 688.385C778.573 689.511 791.701 688.619 798.761 688.615L869.917 688.587C883.005 688.567 905.603 687.023 917.818 690.359Q919.016 690.686 920.201 691.062Q921.385 691.437 922.553 691.86Q923.721 692.284 924.871 692.754Q926.021 693.224 927.151 693.74Q928.281 694.256 929.389 694.818Q930.497 695.379 931.582 695.985Q932.667 696.591 933.726 697.24Q934.785 697.889 935.817 698.581Q936.849 699.272 937.853 700.005Q938.856 700.737 939.829 701.51Q940.802 702.283 941.742 703.094Q942.683 703.906 943.59 704.754Q944.498 705.603 945.37 706.488Q946.242 707.373 947.077 708.292Q947.913 709.211 948.711 710.164Q949.508 711.116 950.267 712.1Q951.459 713.693 952.557 715.352Q953.655 717.011 954.656 718.731Q955.656 720.451 956.554 722.226Q957.453 724.001 958.248 725.825Q959.043 727.649 959.73 729.516Q960.418 731.383 960.996 733.287Q961.575 735.19 962.042 737.124Q962.509 739.058 962.864 741.016C964.68 751.399 963.957 762.373 963.963 772.891L963.966 820.319L963.971 857.93C963.996 866.708 964.553 875.812 963.319 884.512C960.891 901.636 950.561 917.427 936.788 927.67C916.685 942.62 893.414 940.961 869.702 940.848Q861.704 916.266 854.183 891.534C864.123 891.268 874.882 887.082 881.977 880.024C894.911 867.156 893.474 850.189 893.479 833.454L893.556 804.524C893.594 790.377 893.815 776.433 882.87 765.799C878.35 761.409 872.274 758.658 866.092 757.611C855.791 755.865 839.921 757.508 829.009 757.51Q782.163 757.373 735.318 757.705C736.571 748.645 736.074 739.376 733.307 730.62C728.465 715.295 718.46 703.69 704.231 696.307C689.759 688.798 675.404 688.239 660.029 693.134C660.455 687.278 661.479 673.126 660.155 667.675C666.056 666.756 673.379 662.207 677.745 658.221C685.464 651.175 690.161 640.539 690.553 630.13C691.321 609.727 664.777 538.584 654.132 518.932C647.74 507.132 639.313 495.409 630.091 485.613Z"/>
</svg>
